<?xml version="1.0" standalone="no"?>
<!DOCTYPE svg PUBLIC "-//W3C//DTD SVG 20010904//EN"
 "http://www.w3.org/TR/2001/REC-SVG-20010904/DTD/svg10.dtd">
<svg version="1.0" xmlns="http://www.w3.org/2000/svg"
 width="1200.000000pt" height="1200.000000pt" viewBox="0 0 1200.000000 1200.000000"
 preserveAspectRatio="xMidYMid meet">

<g transform="translate(0.000000,1200.000000) scale(0.100000,-0.100000)"
fill="#61dafb" stroke="none">
<path d="M3986 9549 c-356 -52 -649 -285 -840 -667 -94 -187 -113 -265 -321
-1304 -112 -559 -195 -996 -195 -1028 l0 -55 -59 -23 c-80 -31 -207 -109 -292
-178 -167 -136 -305 -356 -367 -581 l-26 -98 -4 -600 c-3 -518 -1 -613 13
-698 39 -235 146 -441 316 -610 97 -96 234 -190 340 -234 l69 -28 0 -170 c1
-264 12 -370 45 -435 36 -73 97 -135 170 -173 l60 -32 290 0 290 0 55 26 c85
41 135 90 177 176 l38 77 3 233 4 233 2248 0 2248 0 4 -233 c4 -200 7 -239 23
-280 43 -105 137 -192 241 -223 44 -12 102 -15 321 -12 l268 3 55 28 c74 38
135 99 172 172 36 71 47 166 48 440 l0 170 68 27 c176 72 378 243 491 418 70
109 112 203 150 339 l26 96 0 645 0 645 -28 100 c-39 142 -130 319 -220 430
-114 139 -274 260 -429 323 l-68 27 0 55 c0 31 -85 478 -195 1028 -209 1048
-226 1116 -325 1314 -170 338 -411 549 -728 636 l-97 27 -1990 1 c-1094 1
-2017 -2 -2049 -7z m3996 -757 c96 -47 203 -199 257 -362 15 -46 381 -1840
381 -1867 0 -2 -1179 -3 -2620 -3 -1441 0 -2620 1 -2620 3 0 26 366 1821 381
1867 45 139 137 282 222 342 68 48 3 47 2037 45 l1915 -2 47 -23z m-4680
-3363 c29 -6 90 -28 135 -50 191 -91 313 -287 313 -504 0 -313 -252 -564 -565
-565 -274 0 -517 212 -557 487 -55 380 296 710 674 632z m5701 -23 c196 -74
338 -247 369 -449 51 -331 -220 -647 -554 -647 -94 0 -160 16 -255 61 -191 91
-313 287 -313 504 0 100 19 177 67 268 70 132 213 245 359 282 90 22 241 14
327 -19z"/>
</g>
</svg>
